<?xml version="1.0" standalone="no"?>
<!DOCTYPE svg PUBLIC "-//W3C//DTD SVG 20010904//EN"
 "http://www.w3.org/TR/2001/REC-SVG-20010904/DTD/svg10.dtd">
<svg version="1.0" xmlns="http://www.w3.org/2000/svg"
 width="512.000000pt" height="512.000000pt" viewBox="0 0 512.000000 512.000000"
 preserveAspectRatio="xMidYMid meet">
<metadata>
Created by potrace 1.11, written by Peter Selinger 2001-2013
</metadata>
<g transform="translate(0.000000,512.000000) scale(0.100000,-0.100000)"
fill="#000000" stroke="none">
<path d="M1365 4790 c-4 -6 -11 -8 -16 -4 -5 3 -16 0 -24 -6 -8 -7 -15 -9 -15
-4 0 5 -4 4 -8 -2 -5 -8 -98 -43 -132 -49 -3 -1 -23 -9 -45 -19 -21 -9 -46
-18 -55 -20 -8 -2 -24 -7 -35 -11 -49 -20 -120 -47 -120 -45 0 1 -13 -3 -28
-9 -16 -6 -32 -11 -37 -11 -7 0 -7 -29 0 -37 2 -2 4 -7 5 -13 1 -5 4 -12 5
-15 1 -3 3 -8 5 -12 1 -5 5 -15 8 -23 7 -17 78 -214 109 -305 12 -33 25 -71
31 -85 6 -14 12 -34 14 -44 2 -11 7 -24 12 -30 5 -6 12 -26 16 -43 3 -18 10
-33 14 -33 4 0 8 -10 8 -22 1 -13 9 -39 17 -58 26 -61 79 -214 79 -227 0 -7 3
-13 6 -13 5 0 28 -64 37 -100 0 -3 5 -16 11 -30 6 -14 20 -54 33 -90 12 -36
26 -72 31 -81 4 -9 10 -27 13 -40 3 -13 19 -59 35 -102 17 -43 31 -85 31 -93
0 -8 5 -14 11 -14 5 0 8 -4 5 -8 -2 -4 1 -21 8 -37 14 -34 36 -95 39 -110 2
-5 5 -14 8 -20 5 -8 30 -76 34 -95 1 -3 4 -12 8 -20 3 -8 20 -55 38 -105 17
-49 54 -153 81 -230 27 -77 50 -144 51 -150 1 -5 4 -12 7 -15 8 -8 42 -104 45
-129 2 -13 8 -28 14 -34 6 -6 11 -17 11 -23 0 -7 5 -25 12 -41 6 -15 12 -32
14 -38 1 -5 14 -41 29 -80 23 -58 35 -93 50 -145 1 -3 7 -18 13 -33 7 -16 12
-30 12 -32 0 -2 5 -16 12 -32 6 -15 12 -32 14 -38 2 -9 59 -172 71 -205 4 -8
5 -18 5 -23 -1 -4 3 -7 8 -7 6 0 10 -6 9 -12 -1 -7 1 -22 5 -33 4 -11 13 -33
19 -50 7 -16 12 -32 13 -35 1 -6 12 -35 24 -65 4 -11 13 -33 18 -50 24 -70 74
-211 79 -225 4 -8 7 -18 8 -22 2 -5 4 -10 5 -13 1 -3 3 -9 4 -14 0 -5 4 -13 9
-17 4 -4 7 -13 7 -19 0 -7 8 -30 17 -51 9 -22 18 -46 19 -55 2 -9 9 -29 15
-45 7 -16 13 -31 14 -34 1 -3 4 -12 8 -20 10 -27 69 -193 89 -255 16 -49 34
-94 44 -113 1 -3 88 28 144 51 14 6 27 11 30 12 67 20 99 31 116 42 11 7 23
11 26 8 3 -3 18 1 34 10 16 8 37 15 47 15 9 0 17 4 17 10 0 5 3 9 8 8 4 -1 33
6 65 16 64 21 63 14 25 116 -11 30 -21 60 -23 65 -2 11 -12 39 -25 70 -4 11
-13 34 -18 50 -6 17 -14 39 -18 50 -4 11 -8 23 -9 28 -2 4 -4 9 -5 12 -1 3 -3
8 -4 13 -2 8 -34 96 -46 127 -8 20 -22 56 -25 65 -1 3 -7 26 -15 53 -7 26 -16
47 -21 47 -5 0 -8 3 -7 7 2 10 -13 65 -21 78 -3 6 -6 13 -7 18 -1 4 -3 9 -4
12 -1 3 -3 8 -5 13 -1 4 -7 20 -13 35 -7 16 -12 34 -12 41 0 7 -3 16 -7 19 -5
6 -38 96 -79 217 -8 25 -19 54 -24 65 -4 11 -27 74 -50 140 -24 66 -49 134
-56 152 -8 17 -14 34 -14 38 0 9 -67 200 -80 230 -5 11 -46 124 -90 250 -45
127 -87 244 -93 260 -6 17 -12 32 -13 35 0 3 -5 16 -11 30 -6 14 -23 63 -39
110 -16 47 -31 87 -34 90 -3 3 -7 12 -9 20 -7 32 -8 35 -14 50 -24 55 -80 218
-80 233 -1 9 -4 17 -8 17 -4 0 -11 15 -14 33 -4 17 -11 37 -15 42 -5 6 -8 14
-8 18 0 4 -4 20 -10 35 -14 36 -23 66 -23 72 -1 3 -5 11 -11 18 -6 6 -8 12 -4
12 4 0 -1 14 -10 31 -8 17 -17 38 -19 47 -7 36 -10 47 -15 52 -3 3 -16 37 -29
75 -13 39 -29 84 -37 102 -8 17 -14 36 -14 43 0 7 -6 26 -14 43 -8 18 -29 73
-46 122 -17 50 -40 113 -50 140 -27 73 -111 308 -114 320 -2 6 -8 23 -14 38
-7 16 -12 34 -12 41 0 6 -5 17 -12 24 -7 7 -8 12 -4 12 5 0 4 6 -1 13 -6 6
-18 36 -27 65 -17 51 -28 62 -41 42z"/>
<path d="M3717 4758 c-38 -101 -109 -304 -109 -315 -1 -7 -5 -13 -10 -13 -4 0
-7 -3 -6 -7 3 -11 -22 -85 -33 -99 -5 -6 -6 -14 -2 -18 4 -4 3 -10 -2 -14 -6
-4 -20 -36 -32 -72 -27 -81 -98 -279 -153 -430 -23 -63 -47 -132 -52 -152 -6
-21 -15 -38 -21 -38 -6 0 -8 -3 -5 -6 6 -5 -45 -160 -56 -171 -3 -4 -6 -12 -6
-19 0 -7 -5 -25 -12 -41 -6 -15 -12 -31 -13 -35 -2 -5 -3 -9 -5 -10 -1 -2 -3
-10 -5 -18 -2 -8 -13 -38 -24 -66 -11 -29 -17 -54 -14 -58 4 -3 1 -6 -5 -6 -7
0 -12 -6 -12 -14 0 -8 -5 -27 -12 -43 -6 -15 -12 -30 -13 -33 -4 -18 -29 -87
-34 -95 -3 -5 -6 -16 -7 -24 -2 -7 -12 -37 -24 -66 -12 -29 -23 -59 -24 -66
-2 -8 -6 -21 -9 -29 -4 -8 -20 -53 -37 -100 -17 -47 -34 -92 -37 -100 -4 -8
-8 -19 -8 -25 -1 -5 -5 -17 -8 -25 -6 -13 -3 -49 3 -57 2 -2 4 -7 5 -13 1 -5
4 -12 5 -15 1 -3 3 -8 4 -12 1 -5 6 -21 13 -38 6 -16 20 -55 31 -85 11 -30 23
-64 28 -75 4 -11 6 -24 5 -29 -1 -5 2 -12 6 -15 5 -3 16 -28 26 -56 20 -62 46
-135 54 -155 3 -8 7 -19 9 -25 6 -23 75 -222 84 -240 4 -11 12 -33 17 -48 8
-28 10 -26 32 40 13 37 29 79 34 93 6 14 11 30 13 35 1 6 17 48 34 95 17 47
33 90 34 95 1 6 5 15 8 21 4 6 9 22 12 37 2 15 8 32 12 39 4 6 24 59 45 117
20 58 51 144 69 191 17 47 33 92 35 100 2 8 4 15 5 15 1 0 3 7 5 15 7 23 74
213 84 235 15 31 35 99 33 108 -1 4 2 7 8 7 6 0 9 3 8 8 -2 7 21 80 31 97 3 6
6 15 7 20 4 24 9 40 14 45 3 3 13 28 23 55 19 53 20 55 32 98 4 15 11 27 17
27 5 0 7 4 4 8 -4 7 53 178 81 242 3 8 7 22 9 30 2 8 15 44 28 79 14 35 23 68
20 72 -3 5 -1 9 5 9 6 0 13 16 17 35 3 19 11 35 17 35 6 0 8 3 4 6 -5 5 7 43
38 119 4 11 7 24 6 29 -1 4 2 13 7 20 5 6 26 61 46 121 21 61 45 125 53 143 8
18 16 40 18 50 5 18 24 73 79 226 42 113 40 106 22 106 -7 0 -45 13 -85 29
-39 17 -71 28 -71 25 0 -2 -13 2 -29 11 -17 8 -38 16 -48 18 -10 2 -36 11 -58
21 -21 9 -46 18 -55 20 -13 3 -46 14 -90 33 -8 3 -19 7 -25 8 -5 0 -23 6 -38
13 -16 7 -30 12 -31 12 -2 0 -11 -19 -19 -42z"/>
</g>
</svg>
